<?xml version="1.0" standalone="no"?>
<!DOCTYPE svg PUBLIC "-//W3C//DTD SVG 20010904//EN"
 "http://www.w3.org/TR/2001/REC-SVG-20010904/DTD/svg10.dtd">
<svg version="1.0" xmlns="http://www.w3.org/2000/svg"
 width="1536.000000pt" height="1536.000000pt" viewBox="0 0 1536.000000 1536.000000"
 preserveAspectRatio="xMidYMid meet">
<metadata>
Created by potrace 1.14, written by Peter Selinger 2001-2017
</metadata>
<g transform="translate(0.000000,1536.000000) scale(0.100000,-0.100000)"
fill="#000000" stroke="none">
<path d="M7490 11729 c-36 -39 -76 -83 -90 -98 -14 -16 -56 -63 -95 -105 -38
-43 -86 -95 -105 -115 -31 -34 -152 -167 -225 -246 -15 -16 -54 -61 -88 -98
-33 -37 -81 -90 -106 -116 -25 -27 -68 -74 -96 -106 -27 -31 -66 -73 -85 -94
-19 -20 -66 -72 -105 -115 -38 -43 -94 -103 -123 -134 -30 -32 -71 -77 -92
-102 -21 -25 -60 -68 -87 -96 -26 -28 -79 -86 -118 -130 -38 -43 -93 -103
-122 -134 -29 -31 -62 -67 -73 -80 -20 -23 -94 -105 -225 -247 l-50 -54 -46
51 c-25 27 -45 50 -43 50 1 0 -19 22 -44 49 -26 26 -63 66 -82 87 -44 48 -213
235 -260 288 -19 22 -54 59 -77 83 -24 24 -43 46 -43 48 0 1 -15 18 -32 37
-29 29 -167 179 -223 242 -11 12 -54 60 -96 107 -42 46 -99 108 -125 138 -27
30 -65 71 -84 91 -19 21 -66 72 -105 115 -38 43 -97 108 -131 144 -33 36 -78
86 -100 110 -21 25 -50 57 -64 71 -24 26 -125 137 -245 270 -33 36 -69 75 -80
88 l-21 22 -69 -76 c-39 -42 -83 -91 -100 -109 -16 -18 -61 -67 -100 -109 -38
-43 -83 -92 -100 -110 -16 -18 -61 -68 -100 -111 -38 -42 -88 -97 -110 -121
-41 -44 -174 -190 -210 -230 -73 -81 -184 -203 -208 -227 -15 -16 -27 -30 -27
-31 0 -3 -121 -135 -181 -198 -26 -26 -45 -48 -43 -48 2 0 -9 -13 -24 -29 -40
-42 -174 -188 -229 -250 -26 -29 -69 -76 -95 -103 -27 -28 -48 -52 -48 -54 0
-3 -12 -17 -28 -32 -15 -16 -63 -68 -107 -116 -44 -48 -93 -103 -110 -121 -16
-18 -61 -67 -100 -110 -38 -43 -83 -92 -100 -110 -16 -17 -64 -69 -105 -115
-41 -46 -89 -99 -107 -117 -17 -18 -30 -33 -29 -33 2 0 -15 -19 -38 -43 -23
-24 -81 -88 -131 -142 -49 -54 -101 -111 -115 -126 -14 -15 -52 -58 -85 -94
-33 -37 -76 -84 -95 -105 -19 -21 -64 -71 -100 -111 -36 -39 -85 -94 -110
-120 -25 -26 -70 -75 -100 -109 -30 -35 -72 -81 -94 -104 -21 -22 -64 -69 -95
-104 -31 -35 -74 -83 -96 -106 -22 -24 -72 -79 -111 -122 -156 -172 -143 -152
-117 -175 10 -8 41 -42 70 -75 29 -33 67 -76 85 -96 34 -36 120 -134 158 -178
11 -14 42 -48 68 -76 26 -28 72 -80 102 -114 30 -35 75 -86 100 -113 25 -27
52 -58 61 -68 64 -73 120 -136 154 -173 22 -23 59 -65 82 -92 23 -27 61 -70
85 -96 23 -25 64 -70 90 -100 25 -29 60 -69 78 -88 17 -19 53 -60 80 -90 26
-30 59 -66 72 -80 12 -15 48 -54 78 -89 30 -35 69 -78 85 -95 17 -18 53 -58
80 -90 28 -32 69 -78 93 -104 24 -26 60 -66 80 -90 20 -23 56 -64 80 -90 24
-26 62 -69 85 -96 23 -27 54 -61 70 -77 15 -15 27 -32 27 -38 0 -6 4 -11 8
-11 5 0 51 -48 103 -107 52 -59 101 -115 109 -123 8 -9 49 -54 90 -101 73 -83
87 -98 152 -170 18 -21 60 -67 93 -105 33 -37 71 -79 84 -93 13 -14 44 -50 69
-79 25 -29 57 -65 71 -80 14 -15 55 -61 91 -101 36 -41 76 -86 88 -100 13 -14
46 -51 72 -81 26 -30 59 -67 72 -81 42 -46 156 -173 178 -199 18 -22 95 -107
168 -188 12 -14 44 -50 70 -80 26 -30 67 -76 92 -102 l46 -48 58 66 c32 37 91
103 130 146 76 86 83 93 166 186 30 34 64 72 75 84 11 12 49 55 85 96 36 40
70 78 75 84 10 11 151 170 170 192 6 7 37 42 70 79 75 83 102 114 140 156 17
19 64 72 106 119 42 47 87 98 100 114 13 16 38 43 54 61 17 17 57 62 90 100
33 37 81 91 106 119 75 83 92 102 136 153 22 26 54 62 70 78 15 17 60 66 98
110 39 44 89 100 113 124 23 25 42 49 42 53 0 16 25 7 46 -17 20 -23 117 -132
167 -188 12 -13 49 -54 82 -92 33 -37 71 -80 85 -96 14 -15 50 -55 80 -89 30
-35 66 -75 80 -90 14 -15 38 -43 54 -61 16 -19 48 -54 70 -79 57 -63 170 -190
196 -220 42 -48 155 -174 178 -197 13 -13 20 -23 18 -23 -3 0 7 -12 22 -28 15
-15 63 -67 107 -117 44 -49 89 -99 100 -111 11 -12 42 -47 69 -78 27 -31 63
-71 80 -90 17 -19 51 -57 76 -86 25 -28 61 -68 80 -89 19 -21 60 -67 90 -102
30 -35 66 -75 80 -89 14 -15 45 -50 70 -79 80 -92 140 -155 140 -145 0 5 21
32 46 59 96 105 173 192 219 245 26 30 55 62 64 71 9 9 41 45 71 80 30 34 68
76 83 93 15 16 49 54 75 84 26 30 60 68 75 85 16 18 52 58 80 91 29 32 66 73
82 91 17 17 53 58 80 89 28 32 64 73 80 90 17 18 53 59 80 90 28 32 61 70 75
85 14 14 52 58 85 95 33 38 74 84 90 102 17 17 53 58 80 89 28 31 61 69 75 85
14 15 50 55 80 89 30 35 72 81 92 103 21 22 55 60 75 85 21 24 60 69 88 98 27
30 68 75 90 101 22 26 57 65 78 86 20 22 37 42 37 44 0 8 57 64 66 64 5 0 18
-11 28 -24 10 -14 37 -45 60 -69 22 -24 59 -65 81 -91 22 -25 56 -63 75 -84
19 -21 60 -67 90 -101 30 -35 60 -68 65 -75 6 -6 51 -56 100 -111 49 -55 94
-105 100 -111 5 -6 35 -39 65 -74 30 -35 66 -75 80 -90 29 -31 147 -163 173
-194 25 -29 147 -165 177 -197 14 -15 44 -49 67 -76 23 -26 52 -60 65 -74 98
-111 157 -177 183 -205 17 -17 50 -55 75 -84 25 -29 54 -62 65 -75 11 -12 47
-52 80 -89 33 -37 65 -73 70 -79 6 -7 51 -57 100 -112 50 -55 93 -101 98 -103
4 -2 7 -7 7 -12 0 -4 19 -28 43 -53 23 -24 53 -58 67 -75 29 -37 37 -38 59
-13 33 38 158 177 209 233 29 32 60 68 70 79 9 11 31 35 47 53 17 18 59 66 95
106 36 41 76 85 90 100 14 15 36 40 50 57 22 27 95 109 180 203 14 15 52 58
85 96 33 37 72 81 88 96 15 16 27 31 27 34 0 3 10 15 23 27 12 12 42 45 67 72
124 139 171 192 187 211 24 28 144 163 163 183 9 9 47 52 85 96 39 44 79 89
90 101 11 11 45 49 75 83 81 92 98 112 168 189 35 38 72 80 83 93 25 29 125
141 159 179 14 15 50 55 80 90 30 35 66 75 80 90 14 15 52 58 85 95 33 38 69
79 80 91 12 12 48 53 80 90 33 37 67 75 75 84 8 8 67 74 130 145 63 72 131
148 151 170 47 51 71 79 139 155 73 83 84 96 160 180 36 40 72 82 81 92 9 10
45 51 80 90 35 39 75 84 89 99 14 16 48 54 75 85 28 30 59 66 70 78 78 85 155
175 155 181 0 4 -17 26 -37 48 -62 65 -200 216 -288 315 -16 18 -50 55 -75 82
-25 26 -74 81 -110 120 -36 40 -85 95 -110 121 -25 27 -65 72 -90 100 -25 27
-61 67 -80 88 -19 20 -69 75 -110 121 -41 46 -86 95 -100 110 -50 54 -127 138
-195 214 -38 43 -90 100 -115 126 -25 27 -67 74 -95 105 -27 31 -68 75 -90 99
-22 23 -60 64 -85 92 -77 85 -214 236 -240 264 -14 15 -59 64 -100 110 -41 46
-85 94 -97 106 -13 13 -23 28 -23 34 0 6 -4 8 -10 5 -5 -3 -10 -2 -10 2 0 5
-21 31 -46 58 -25 28 -71 79 -102 113 -32 35 -84 93 -118 128 -34 35 -59 64
-57 64 2 0 -9 13 -24 28 -15 16 -48 51 -73 78 -45 50 -174 192 -240 264 -19
21 -60 66 -90 100 -30 33 -73 80 -95 104 -22 23 -71 78 -110 120 -38 43 -83
92 -100 110 -16 18 -52 57 -80 88 -126 139 -209 230 -335 368 -47 51 -96 105
-109 121 -36 43 -26 48 -141 -81 -30 -34 -69 -76 -85 -94 -27 -27 -152 -165
-255 -280 -19 -21 -46 -51 -60 -66 -14 -15 -63 -69 -110 -120 -47 -52 -106
-117 -131 -144 -26 -28 -62 -68 -80 -89 -19 -20 -56 -62 -84 -91 -27 -29 -75
-81 -105 -115 -30 -34 -71 -79 -90 -100 -19 -20 -66 -71 -103 -113 -37 -42
-80 -89 -95 -105 -15 -16 -63 -69 -107 -117 -44 -49 -96 -106 -115 -126 -19
-21 -64 -71 -100 -111 -61 -68 -177 -194 -227 -246 -13 -13 -23 -26 -23 -28 0
-2 -19 -23 -42 -48 -24 -25 -64 -68 -90 -95 l-46 -51 -36 42 c-19 23 -59 68
-88 99 -29 31 -82 89 -118 129 -36 39 -81 89 -100 109 -19 21 -66 72 -105 115
-38 43 -81 90 -95 105 -22 24 -128 141 -215 236 -16 19 -55 61 -85 94 -30 34
-73 80 -95 104 -22 23 -67 73 -100 110 -33 38 -80 90 -105 116 -25 26 -76 83
-115 126 -38 43 -83 92 -100 110 -16 17 -64 69 -105 115 -41 45 -86 94 -98
108 -13 14 -54 59 -90 100 -37 40 -80 88 -97 106 -16 17 -66 72 -110 120 -44
49 -99 110 -123 135 -23 25 -48 54 -55 63 -11 16 -19 10 -77 -54z"/>
</g>
</svg>
